<svg width="60" height="47" viewBox="0 0 60 47" fill="none" xmlns="http://www.w3.org/2000/svg">
<path d="M16.7344 14.5472C21.7736 15.2562 25.4451 10.3571 25.4451 10.3571C29.1132 15.4341 31.6094 11.4087 31.6094 11.4087C31.6094 11.4087 28.9525 15.4075 20.1614 15.2829L16.7344 14.5472Z" fill="white"/>
<path d="M34.4096 7.07289C34.4096 7.07289 28.9433 18.2525 16.7344 15.439C16.7344 15.439 37.1393 20.7755 44.625 11.2472L34.4096 7.07289Z" fill="white"/>
<path d="M28.8724 23.7425C28.71 23.7425 28.5773 23.8703 28.5773 24.0306V25.8529C28.5773 26.0116 28.71 26.1425 28.8724 26.1425H30.7181C30.8805 26.1425 31.0086 26.0116 31.0086 25.8529V24.0306C31.0086 23.8703 30.879 23.7425 30.7181 23.7425H28.8724ZM32.5935 25.4616C32.5935 25.5464 32.6669 25.6188 32.7575 25.6188H33.7787C33.8693 25.6188 33.938 25.5464 33.938 25.4616V24.4542C33.938 24.3648 33.8677 24.2924 33.7787 24.2924H32.7575C32.6685 24.2924 32.5935 24.3648 32.5935 24.4542V25.4616ZM25.6994 25.4616C25.6994 25.5464 25.7728 25.6188 25.8634 25.6188H26.8831C26.9721 25.6188 27.0439 25.5464 27.0439 25.4616V24.4542C27.0439 24.3648 26.9721 24.2924 26.8831 24.2924H25.8634C25.7728 24.2924 25.6994 24.3648 25.6994 24.4542V25.4616ZM37.1875 16.1465V25.7975C37.1875 27.2486 35.9914 28.4286 34.5204 28.4286H24.978C23.5055 28.4286 22.3125 27.2486 22.3125 25.7975V3.12803C22.3125 1.67999 23.5055 0.5 24.978 0.5H34.5204C35.9914 0.5 37.1875 1.67999 37.1875 3.12803V7.15942L35.4121 6.32757V2.8261H24.0895V22.2236H35.4121V16.7842C36.0913 16.587 36.6987 16.356 37.1875 16.1465Z" fill="white"/>
<path d="M46.9431 40.1038C46.9514 40.295 46.9166 40.4543 46.8091 40.5913C46.7049 40.7235 46.5874 40.7841 46.4037 40.8589C46.1671 40.9513 45.9371 40.9848 45.6823 41.0071C45.4258 41.0326 45.1694 41.0374 44.8732 41.0374C44.486 41.0374 44.0972 40.98 43.619 40.9051C43.1259 40.8255 42.704 40.7187 42.1696 40.5371V42.2863C42.4988 42.4265 42.9439 42.5794 43.432 42.7117C43.9383 42.8487 44.4992 42.9618 45.1181 42.9713C45.8246 42.9841 46.321 42.9235 46.8455 42.7993C47.3684 42.6766 47.8085 42.4902 48.1824 42.2338C48.5481 41.9805 48.8343 41.6634 49.0346 41.2795C49.2348 40.8988 49.3291 40.4511 49.3142 39.9365C49.3043 39.4682 49.2099 39.0795 49.0296 38.7752C48.8476 38.4693 48.6192 38.2256 48.3429 38.0328C48.0699 37.8432 47.7605 37.6919 47.4213 37.582C47.0788 37.48 46.7379 37.386 46.3971 37.3127C46.1787 37.2634 45.957 37.2108 45.727 37.1598C45.497 37.1056 45.2753 37.0387 45.0618 36.9591C44.8517 36.8762 44.6829 36.7695 44.5621 36.6373C44.438 36.5067 44.3768 36.3362 44.3735 36.1307C44.3685 36.0128 44.3917 35.8965 44.4413 35.785C44.4943 35.6767 44.5836 35.5779 44.6995 35.495C44.8153 35.4138 44.989 35.3517 45.1694 35.3182C45.3696 35.2832 45.6194 35.2832 45.8891 35.3007C46.1125 35.3134 46.3574 35.3278 46.6089 35.358C46.8604 35.3851 47.1202 35.417 47.375 35.46C47.6314 35.5046 47.8647 35.5476 48.1162 35.605C48.3628 35.6655 48.5746 35.7324 48.8046 35.7993V33.8462C48.376 33.7028 47.873 33.5865 47.3386 33.4941C46.8091 33.4017 46.2449 33.3571 45.6426 33.3571C45.1479 33.3571 44.6829 33.4161 44.2395 33.534C43.801 33.6535 43.389 33.8653 43.0597 34.1091C42.7305 34.3544 42.5005 34.6874 42.3135 35.0585C42.1249 35.4329 42.0388 35.871 42.0537 36.3808C42.062 36.7934 42.1431 37.1423 42.2986 37.429C42.4492 37.7158 42.6527 37.9516 42.9025 38.1411C43.1557 38.3307 43.4469 38.4805 43.7712 38.5968C44.1021 38.7115 44.4364 38.8134 44.7921 38.901C45.0734 38.9632 45.3381 39.0269 45.5963 39.089C45.8478 39.1543 46.0778 39.226 46.273 39.3089C46.4716 39.3965 46.6321 39.5016 46.7545 39.6259C46.8769 39.7486 46.9398 39.9095 46.9431 40.1038ZM20.5255 36.7408H15.4541V39.1209H20.5255V36.7408ZM34.6394 37.1964C34.7453 36.1243 35.3641 35.4759 36.6084 35.4759C37.8527 35.4759 38.5443 36.2454 38.6204 37.1964H34.6394ZM31.9242 38.1395C31.9242 41.2492 33.8634 42.9634 37.2222 42.9634C38.6982 42.9634 39.8068 42.5906 40.6605 42.1907V40.5276C39.9888 40.7203 38.8008 41.0246 37.3199 41.0246C35.5958 41.0246 34.7139 40.3237 34.5881 39.0333H40.9683C40.9981 38.8341 41.0179 38.3594 41.0179 38.0137C41.0179 35.452 39.3931 33.3587 36.6034 33.3587C33.8137 33.3587 31.9209 35.2258 31.9209 38.138L31.9242 38.1395ZM56.9899 41.9645C56.4472 42.5619 55.6712 42.9857 54.4269 42.9857C52.726 42.9857 50.0009 41.9104 50.0009 38.3769C50.0009 35.4871 52.2247 33.3667 55.4131 33.3667C56.9899 33.3667 58.5949 33.7411 59.5 34.09V42.7595H57.1736L56.9899 41.9645ZM56.8609 35.7117C56.5779 35.6352 56.0088 35.5333 55.3602 35.5333C54.0911 35.5333 52.769 36.4812 52.769 38.2766C52.769 40.1851 53.9339 40.8972 54.9763 40.8972C55.8499 40.8972 56.5515 40.4447 56.8609 39.9493V35.7117ZM25.5572 35.4871C25.041 35.4871 24.5231 35.5094 24.1591 35.5874V40.4686C24.5744 40.6932 25.218 40.8972 26.0238 40.8972C27.4468 40.8972 28.2509 39.7231 28.2509 38.2272C28.2509 36.1769 26.8296 35.4871 25.5572 35.4871ZM25.6052 33.3667C27.5791 33.3667 31.0191 34.0342 31.0191 38.2272C31.0191 40.9195 29.1047 42.9873 26.2306 42.9873C25.4033 42.9873 24.5992 42.812 24.1591 42.6384V46.5H21.5464V33.7682C22.6864 33.5435 24.0019 33.3667 25.6052 33.3667ZM11.7097 42.8885V37.6648C11.7097 36.2772 10.9751 35.5683 9.50246 35.5683C8.89191 35.5683 8.31776 35.8726 8.27639 35.8965C8.24992 35.9092 8.422 36.2613 8.422 36.7743V42.8885H5.8408V37.6648C5.8408 36.2772 5.10615 35.5683 3.63519 35.5683C2.90054 35.5683 2.6507 35.7977 2.6507 35.7977V42.8885H0V34.3337C1.23765 33.6009 3.72785 32.7199 7.02716 34.0661C7.55994 33.7586 8.48156 33.4702 9.52894 33.4702C12.6032 33.4702 14.3852 34.9359 14.3852 37.3876V42.8885H11.7097Z" fill="white"/>
</svg>
